%TF.GenerationSoftware,KiCad,Pcbnew,(6.0.4)*%
%TF.CreationDate,2022-03-26T17:54:34-04:00*%
%TF.ProjectId,Ribbon cable tester,52696262-6f6e-4206-9361-626c65207465,rev?*%
%TF.SameCoordinates,Original*%
%TF.FileFunction,Legend,Bot*%
%TF.FilePolarity,Positive*%
%FSLAX46Y46*%
G04 Gerber Fmt 4.6, Leading zero omitted, Abs format (unit mm)*
G04 Created by KiCad (PCBNEW (6.0.4)) date 2022-03-26 17:54:34*
%MOMM*%
%LPD*%
G01*
G04 APERTURE LIST*
%ADD10C,0.150000*%
G04 APERTURE END LIST*
D10*
X154137380Y-131547380D02*
X154137380Y-130547380D01*
X153899285Y-130547380D01*
X153756428Y-130595000D01*
X153661190Y-130690238D01*
X153613571Y-130785476D01*
X153565952Y-130975952D01*
X153565952Y-131118809D01*
X153613571Y-131309285D01*
X153661190Y-131404523D01*
X153756428Y-131499761D01*
X153899285Y-131547380D01*
X154137380Y-131547380D01*
X152756428Y-131499761D02*
X152851666Y-131547380D01*
X153042142Y-131547380D01*
X153137380Y-131499761D01*
X153185000Y-131404523D01*
X153185000Y-131023571D01*
X153137380Y-130928333D01*
X153042142Y-130880714D01*
X152851666Y-130880714D01*
X152756428Y-130928333D01*
X152708809Y-131023571D01*
X152708809Y-131118809D01*
X153185000Y-131214047D01*
X152327857Y-131499761D02*
X152232619Y-131547380D01*
X152042142Y-131547380D01*
X151946904Y-131499761D01*
X151899285Y-131404523D01*
X151899285Y-131356904D01*
X151946904Y-131261666D01*
X152042142Y-131214047D01*
X152185000Y-131214047D01*
X152280238Y-131166428D01*
X152327857Y-131071190D01*
X152327857Y-131023571D01*
X152280238Y-130928333D01*
X152185000Y-130880714D01*
X152042142Y-130880714D01*
X151946904Y-130928333D01*
X151470714Y-131547380D02*
X151470714Y-130880714D01*
X151470714Y-130547380D02*
X151518333Y-130595000D01*
X151470714Y-130642619D01*
X151423095Y-130595000D01*
X151470714Y-130547380D01*
X151470714Y-130642619D01*
X150565952Y-130880714D02*
X150565952Y-131690238D01*
X150613571Y-131785476D01*
X150661190Y-131833095D01*
X150756428Y-131880714D01*
X150899285Y-131880714D01*
X150994523Y-131833095D01*
X150565952Y-131499761D02*
X150661190Y-131547380D01*
X150851666Y-131547380D01*
X150946904Y-131499761D01*
X150994523Y-131452142D01*
X151042142Y-131356904D01*
X151042142Y-131071190D01*
X150994523Y-130975952D01*
X150946904Y-130928333D01*
X150851666Y-130880714D01*
X150661190Y-130880714D01*
X150565952Y-130928333D01*
X150089761Y-130880714D02*
X150089761Y-131547380D01*
X150089761Y-130975952D02*
X150042142Y-130928333D01*
X149946904Y-130880714D01*
X149804047Y-130880714D01*
X149708809Y-130928333D01*
X149661190Y-131023571D01*
X149661190Y-131547380D01*
X148804047Y-131499761D02*
X148899285Y-131547380D01*
X149089761Y-131547380D01*
X149185000Y-131499761D01*
X149232619Y-131404523D01*
X149232619Y-131023571D01*
X149185000Y-130928333D01*
X149089761Y-130880714D01*
X148899285Y-130880714D01*
X148804047Y-130928333D01*
X148756428Y-131023571D01*
X148756428Y-131118809D01*
X149232619Y-131214047D01*
X147899285Y-131547380D02*
X147899285Y-130547380D01*
X147899285Y-131499761D02*
X147994523Y-131547380D01*
X148185000Y-131547380D01*
X148280238Y-131499761D01*
X148327857Y-131452142D01*
X148375476Y-131356904D01*
X148375476Y-131071190D01*
X148327857Y-130975952D01*
X148280238Y-130928333D01*
X148185000Y-130880714D01*
X147994523Y-130880714D01*
X147899285Y-130928333D01*
X146661190Y-131547380D02*
X146661190Y-130547380D01*
X146661190Y-130928333D02*
X146565952Y-130880714D01*
X146375476Y-130880714D01*
X146280238Y-130928333D01*
X146232619Y-130975952D01*
X146185000Y-131071190D01*
X146185000Y-131356904D01*
X146232619Y-131452142D01*
X146280238Y-131499761D01*
X146375476Y-131547380D01*
X146565952Y-131547380D01*
X146661190Y-131499761D01*
X145851666Y-130880714D02*
X145613571Y-131547380D01*
X145375476Y-130880714D02*
X145613571Y-131547380D01*
X145708809Y-131785476D01*
X145756428Y-131833095D01*
X145851666Y-131880714D01*
X144280238Y-131261666D02*
X143804047Y-131261666D01*
X144375476Y-131547380D02*
X144042142Y-130547380D01*
X143708809Y-131547380D01*
X143375476Y-130880714D02*
X143375476Y-131547380D01*
X143375476Y-130975952D02*
X143327857Y-130928333D01*
X143232619Y-130880714D01*
X143089761Y-130880714D01*
X142994523Y-130928333D01*
X142946904Y-131023571D01*
X142946904Y-131547380D01*
X142042142Y-131547380D02*
X142042142Y-130547380D01*
X142042142Y-131499761D02*
X142137380Y-131547380D01*
X142327857Y-131547380D01*
X142423095Y-131499761D01*
X142470714Y-131452142D01*
X142518333Y-131356904D01*
X142518333Y-131071190D01*
X142470714Y-130975952D01*
X142423095Y-130928333D01*
X142327857Y-130880714D01*
X142137380Y-130880714D01*
X142042142Y-130928333D01*
X141661190Y-130880714D02*
X141423095Y-131547380D01*
X141185000Y-130880714D02*
X141423095Y-131547380D01*
X141518333Y-131785476D01*
X141565952Y-131833095D01*
X141661190Y-131880714D01*
X139565952Y-131547380D02*
X140042142Y-131547380D01*
X140042142Y-130547380D01*
X139232619Y-131547380D02*
X139232619Y-130880714D01*
X139232619Y-130547380D02*
X139280238Y-130595000D01*
X139232619Y-130642619D01*
X139185000Y-130595000D01*
X139232619Y-130547380D01*
X139232619Y-130642619D01*
M02*
