%TF.GenerationSoftware,KiCad,Pcbnew,(6.0.4)*%
%TF.CreationDate,2022-03-26T17:54:34-04:00*%
%TF.ProjectId,Ribbon cable tester,52696262-6f6e-4206-9361-626c65207465,rev?*%
%TF.SameCoordinates,Original*%
%TF.FileFunction,Soldermask,Top*%
%TF.FilePolarity,Negative*%
%FSLAX46Y46*%
G04 Gerber Fmt 4.6, Leading zero omitted, Abs format (unit mm)*
G04 Created by KiCad (PCBNEW (6.0.4)) date 2022-03-26 17:54:34*
%MOMM*%
%LPD*%
G01*
G04 APERTURE LIST*
G04 Aperture macros list*
%AMRoundRect*
0 Rectangle with rounded corners*
0 $1 Rounding radius*
0 $2 $3 $4 $5 $6 $7 $8 $9 X,Y pos of 4 corners*
0 Add a 4 corners polygon primitive as box body*
4,1,4,$2,$3,$4,$5,$6,$7,$8,$9,$2,$3,0*
0 Add four circle primitives for the rounded corners*
1,1,$1+$1,$2,$3*
1,1,$1+$1,$4,$5*
1,1,$1+$1,$6,$7*
1,1,$1+$1,$8,$9*
0 Add four rect primitives between the rounded corners*
20,1,$1+$1,$2,$3,$4,$5,0*
20,1,$1+$1,$4,$5,$6,$7,0*
20,1,$1+$1,$6,$7,$8,$9,0*
20,1,$1+$1,$8,$9,$2,$3,0*%
G04 Aperture macros list end*
%ADD10C,3.500000*%
%ADD11RoundRect,0.150000X0.150000X-0.537500X0.150000X0.537500X-0.150000X0.537500X-0.150000X-0.537500X0*%
%ADD12RoundRect,0.150000X-0.150000X0.537500X-0.150000X-0.537500X0.150000X-0.537500X0.150000X0.537500X0*%
%ADD13R,0.620000X1.780000*%
%ADD14R,0.300000X0.450000*%
%ADD15C,1.400000*%
%ADD16O,1.400000X1.400000*%
%ADD17R,1.700000X1.700000*%
%ADD18O,1.700000X1.700000*%
%ADD19R,1.800000X1.800000*%
%ADD20C,1.800000*%
%ADD21R,1.600000X1.600000*%
%ADD22O,1.600000X1.600000*%
G04 APERTURE END LIST*
D10*
%TO.C,REF\u002A\u002A*%
X160020000Y-66040000D03*
%TD*%
%TO.C,REF\u002A\u002A*%
X160020000Y-132080000D03*
%TD*%
%TO.C,REF\u002A\u002A*%
X104140000Y-132080000D03*
%TD*%
%TO.C,REF\u002A\u002A*%
X104140000Y-66040000D03*
%TD*%
D11*
%TO.C,U10*%
X125095000Y-123232500D03*
X126365000Y-123232500D03*
X127635000Y-123232500D03*
X128905000Y-123232500D03*
X130175000Y-123232500D03*
X131445000Y-123232500D03*
X132715000Y-123232500D03*
X133985000Y-123232500D03*
X133985000Y-114257500D03*
X132715000Y-114257500D03*
X131445000Y-114257500D03*
X130175000Y-114257500D03*
X128905000Y-114257500D03*
X127635000Y-114257500D03*
X126365000Y-114257500D03*
X125095000Y-114257500D03*
%TD*%
%TO.C,U9*%
X109220000Y-123232500D03*
X110490000Y-123232500D03*
X111760000Y-123232500D03*
X113030000Y-123232500D03*
X114300000Y-123232500D03*
X115570000Y-123232500D03*
X116840000Y-123232500D03*
X118110000Y-123232500D03*
X118110000Y-114257500D03*
X116840000Y-114257500D03*
X115570000Y-114257500D03*
X114300000Y-114257500D03*
X113030000Y-114257500D03*
X111760000Y-114257500D03*
X110490000Y-114257500D03*
X109220000Y-114257500D03*
%TD*%
D12*
%TO.C,U8*%
X133985000Y-100922500D03*
X132715000Y-100922500D03*
X131445000Y-100922500D03*
X130175000Y-100922500D03*
X128905000Y-100922500D03*
X127635000Y-100922500D03*
X126365000Y-100922500D03*
X125095000Y-100922500D03*
X125095000Y-109897500D03*
X126365000Y-109897500D03*
X127635000Y-109897500D03*
X128905000Y-109897500D03*
X130175000Y-109897500D03*
X131445000Y-109897500D03*
X132715000Y-109897500D03*
X133985000Y-109897500D03*
%TD*%
%TO.C,U7*%
X118110000Y-100922500D03*
X116840000Y-100922500D03*
X115570000Y-100922500D03*
X114300000Y-100922500D03*
X113030000Y-100922500D03*
X111760000Y-100922500D03*
X110490000Y-100922500D03*
X109220000Y-100922500D03*
X109220000Y-109897500D03*
X110490000Y-109897500D03*
X111760000Y-109897500D03*
X113030000Y-109897500D03*
X114300000Y-109897500D03*
X115570000Y-109897500D03*
X116840000Y-109897500D03*
X118110000Y-109897500D03*
%TD*%
D13*
%TO.C,U6*%
X125095000Y-95950000D03*
X126365000Y-95950000D03*
X127635000Y-95950000D03*
X128905000Y-95950000D03*
X130175000Y-95950000D03*
X131445000Y-95950000D03*
X132715000Y-95950000D03*
X133985000Y-95950000D03*
X133985000Y-86930000D03*
X132715000Y-86930000D03*
X131445000Y-86930000D03*
X130175000Y-86930000D03*
X128905000Y-86930000D03*
X127635000Y-86930000D03*
X126365000Y-86930000D03*
X125095000Y-86930000D03*
%TD*%
%TO.C,U5*%
X109220000Y-95950000D03*
X110490000Y-95950000D03*
X111760000Y-95950000D03*
X113030000Y-95950000D03*
X114300000Y-95950000D03*
X115570000Y-95950000D03*
X116840000Y-95950000D03*
X118110000Y-95950000D03*
X118110000Y-86930000D03*
X116840000Y-86930000D03*
X115570000Y-86930000D03*
X114300000Y-86930000D03*
X113030000Y-86930000D03*
X111760000Y-86930000D03*
X110490000Y-86930000D03*
X109220000Y-86930000D03*
%TD*%
%TO.C,U4*%
X125095000Y-81980000D03*
X126365000Y-81980000D03*
X127635000Y-81980000D03*
X128905000Y-81980000D03*
X130175000Y-81980000D03*
X131445000Y-81980000D03*
X132715000Y-81980000D03*
X133985000Y-81980000D03*
X133985000Y-72960000D03*
X132715000Y-72960000D03*
X131445000Y-72960000D03*
X130175000Y-72960000D03*
X128905000Y-72960000D03*
X127635000Y-72960000D03*
X126365000Y-72960000D03*
X125095000Y-72960000D03*
%TD*%
%TO.C,U3*%
X109220000Y-81980000D03*
X110490000Y-81980000D03*
X111760000Y-81980000D03*
X113030000Y-81980000D03*
X114300000Y-81980000D03*
X115570000Y-81980000D03*
X116840000Y-81980000D03*
X118110000Y-81980000D03*
X118110000Y-72960000D03*
X116840000Y-72960000D03*
X115570000Y-72960000D03*
X114300000Y-72960000D03*
X113030000Y-72960000D03*
X111760000Y-72960000D03*
X110490000Y-72960000D03*
X109220000Y-72960000D03*
%TD*%
D14*
%TO.C,U2*%
X150630000Y-78805000D03*
X151130000Y-78805000D03*
X151630000Y-78805000D03*
X151630000Y-77405000D03*
X150630000Y-77405000D03*
%TD*%
%TO.C,U1*%
X153805000Y-78805000D03*
X154305000Y-78805000D03*
X154805000Y-78805000D03*
X154805000Y-77405000D03*
X153805000Y-77405000D03*
%TD*%
D15*
%TO.C,SW1*%
X149860000Y-73025000D03*
D16*
X144780000Y-73025000D03*
%TD*%
D15*
%TO.C,R3*%
X141830000Y-81280000D03*
D16*
X146910000Y-81280000D03*
%TD*%
D15*
%TO.C,R2*%
X141830000Y-78130000D03*
D16*
X146910000Y-78130000D03*
%TD*%
D15*
%TO.C,R1*%
X149860000Y-81280000D03*
D16*
X154940000Y-81280000D03*
%TD*%
D17*
%TO.C,J2*%
X113030000Y-130180000D03*
D18*
X113030000Y-127640000D03*
X115570000Y-130180000D03*
X115570000Y-127640000D03*
X118110000Y-130180000D03*
X118110000Y-127640000D03*
X120650000Y-130180000D03*
X120650000Y-127640000D03*
X123190000Y-130180000D03*
X123190000Y-127640000D03*
X125730000Y-130180000D03*
X125730000Y-127640000D03*
X128270000Y-130180000D03*
X128270000Y-127640000D03*
X130810000Y-130180000D03*
X130810000Y-127640000D03*
%TD*%
D17*
%TO.C,J1*%
X130795000Y-66035000D03*
D18*
X130795000Y-68575000D03*
X128255000Y-66035000D03*
X128255000Y-68575000D03*
X125715000Y-66035000D03*
X125715000Y-68575000D03*
X123175000Y-66035000D03*
X123175000Y-68575000D03*
X120635000Y-66035000D03*
X120635000Y-68575000D03*
X118095000Y-66035000D03*
X118095000Y-68575000D03*
X115555000Y-66035000D03*
X115555000Y-68575000D03*
X113015000Y-66035000D03*
X113015000Y-68575000D03*
%TD*%
D19*
%TO.C,FAIL*%
X142870000Y-67310000D03*
D20*
X145410000Y-67310000D03*
%TD*%
D19*
%TO.C,PASS*%
X150490000Y-67310000D03*
D20*
X153030000Y-67310000D03*
%TD*%
D21*
%TO.C,A1*%
X139710000Y-87630000D03*
D22*
X139710000Y-90170000D03*
X139710000Y-92710000D03*
X139710000Y-95250000D03*
X139710000Y-97790000D03*
X139710000Y-100330000D03*
X139710000Y-102870000D03*
X139710000Y-105410000D03*
X139710000Y-107950000D03*
X139710000Y-110490000D03*
X139710000Y-113030000D03*
X139710000Y-115570000D03*
X139710000Y-118110000D03*
X139710000Y-120650000D03*
X139710000Y-123190000D03*
X154950000Y-123190000D03*
X154950000Y-120650000D03*
X154950000Y-118110000D03*
X154950000Y-115570000D03*
X154950000Y-113030000D03*
X154950000Y-110490000D03*
X154950000Y-107950000D03*
X154950000Y-105410000D03*
X154950000Y-102870000D03*
X154950000Y-100330000D03*
X154950000Y-97790000D03*
X154950000Y-95250000D03*
X154950000Y-92710000D03*
X154950000Y-90170000D03*
X154950000Y-87630000D03*
%TD*%
M02*
