%TF.GenerationSoftware,KiCad,Pcbnew,(6.0.4)*%
%TF.CreationDate,2022-03-26T17:54:34-04:00*%
%TF.ProjectId,Ribbon cable tester,52696262-6f6e-4206-9361-626c65207465,rev?*%
%TF.SameCoordinates,Original*%
%TF.FileFunction,Soldermask,Bot*%
%TF.FilePolarity,Negative*%
%FSLAX46Y46*%
G04 Gerber Fmt 4.6, Leading zero omitted, Abs format (unit mm)*
G04 Created by KiCad (PCBNEW (6.0.4)) date 2022-03-26 17:54:34*
%MOMM*%
%LPD*%
G01*
G04 APERTURE LIST*
%ADD10C,3.500000*%
%ADD11C,1.400000*%
%ADD12O,1.400000X1.400000*%
%ADD13R,1.700000X1.700000*%
%ADD14O,1.700000X1.700000*%
%ADD15R,1.800000X1.800000*%
%ADD16C,1.800000*%
%ADD17R,1.600000X1.600000*%
%ADD18O,1.600000X1.600000*%
G04 APERTURE END LIST*
D10*
%TO.C,REF\u002A\u002A*%
X160020000Y-66040000D03*
%TD*%
%TO.C,REF\u002A\u002A*%
X160020000Y-132080000D03*
%TD*%
%TO.C,REF\u002A\u002A*%
X104140000Y-132080000D03*
%TD*%
%TO.C,REF\u002A\u002A*%
X104140000Y-66040000D03*
%TD*%
D11*
%TO.C,SW1*%
X149860000Y-73025000D03*
D12*
X144780000Y-73025000D03*
%TD*%
D11*
%TO.C,R3*%
X141830000Y-81280000D03*
D12*
X146910000Y-81280000D03*
%TD*%
D11*
%TO.C,R2*%
X141830000Y-78130000D03*
D12*
X146910000Y-78130000D03*
%TD*%
D11*
%TO.C,R1*%
X149860000Y-81280000D03*
D12*
X154940000Y-81280000D03*
%TD*%
D13*
%TO.C,J2*%
X113030000Y-130180000D03*
D14*
X113030000Y-127640000D03*
X115570000Y-130180000D03*
X115570000Y-127640000D03*
X118110000Y-130180000D03*
X118110000Y-127640000D03*
X120650000Y-130180000D03*
X120650000Y-127640000D03*
X123190000Y-130180000D03*
X123190000Y-127640000D03*
X125730000Y-130180000D03*
X125730000Y-127640000D03*
X128270000Y-130180000D03*
X128270000Y-127640000D03*
X130810000Y-130180000D03*
X130810000Y-127640000D03*
%TD*%
D13*
%TO.C,J1*%
X130795000Y-66035000D03*
D14*
X130795000Y-68575000D03*
X128255000Y-66035000D03*
X128255000Y-68575000D03*
X125715000Y-66035000D03*
X125715000Y-68575000D03*
X123175000Y-66035000D03*
X123175000Y-68575000D03*
X120635000Y-66035000D03*
X120635000Y-68575000D03*
X118095000Y-66035000D03*
X118095000Y-68575000D03*
X115555000Y-66035000D03*
X115555000Y-68575000D03*
X113015000Y-66035000D03*
X113015000Y-68575000D03*
%TD*%
D15*
%TO.C,FAIL*%
X142870000Y-67310000D03*
D16*
X145410000Y-67310000D03*
%TD*%
D15*
%TO.C,PASS*%
X150490000Y-67310000D03*
D16*
X153030000Y-67310000D03*
%TD*%
D17*
%TO.C,A1*%
X139710000Y-87630000D03*
D18*
X139710000Y-90170000D03*
X139710000Y-92710000D03*
X139710000Y-95250000D03*
X139710000Y-97790000D03*
X139710000Y-100330000D03*
X139710000Y-102870000D03*
X139710000Y-105410000D03*
X139710000Y-107950000D03*
X139710000Y-110490000D03*
X139710000Y-113030000D03*
X139710000Y-115570000D03*
X139710000Y-118110000D03*
X139710000Y-120650000D03*
X139710000Y-123190000D03*
X154950000Y-123190000D03*
X154950000Y-120650000D03*
X154950000Y-118110000D03*
X154950000Y-115570000D03*
X154950000Y-113030000D03*
X154950000Y-110490000D03*
X154950000Y-107950000D03*
X154950000Y-105410000D03*
X154950000Y-102870000D03*
X154950000Y-100330000D03*
X154950000Y-97790000D03*
X154950000Y-95250000D03*
X154950000Y-92710000D03*
X154950000Y-90170000D03*
X154950000Y-87630000D03*
%TD*%
M02*
