M48
INCH,TZ
T1C0.0157
T2C0.0276
T3C0.0354
T4C0.0394
%
G90
G05
T1
X40965Y-37750
X41648Y-42852
X41715Y-40778
X41750Y-37250
X41750Y-39112
X42000Y-40500
X42000Y-43250
X42169Y-33259
X42465Y-33000
X42715Y-38750
X42722Y-43972
X43000Y-42750
X43000Y-44250
X43000Y-49500
X43035Y-33330
X43215Y-45612
X43250Y-33000
X43500Y-34750
X43500Y-39112
X43500Y-42750
X43750Y-36862
X43969Y-44500
X44000Y-34750
X44000Y-40250
X44500Y-30500
X44500Y-34750
X44500Y-42750
X44715Y-42000
X45000Y-34750
X45000Y-42750
X45250Y-30785
X45500Y-34750
X45500Y-40250
X45500Y-46112
X45715Y-31035
X45785Y-43862
X46000Y-42000
X46285Y-30500
X46500Y-33535
X46500Y-38612
X46715Y-32965
X46854Y-44862
X46858Y-28439
X46858Y-29010
X47000Y-33535
X47000Y-37612
X47005Y-25535
X47215Y-49397
X47252Y-28439
X47252Y-29010
X47254Y-44858
X48000Y-28500
X48000Y-44862
X48250Y-37362
X48250Y-49397
X48500Y-45112
X48750Y-44035
X48965Y-31362
X49000Y-47112
X49215Y-49112
X49250Y-35000
X49250Y-36897
X49250Y-40250
X49250Y-42750
X49255Y-45872
X49535Y-30750
X49750Y-33535
X49750Y-34715
X49750Y-42750
X49772Y-31064
X49785Y-49112
X49965Y-47112
X50250Y-28250
X50250Y-34715
X50250Y-44500
X50250Y-49397
X50750Y-34715
X50750Y-42750
X50965Y-31383
X51222Y-34715
X51250Y-42750
X52035Y-40612
X52215Y-28250
X52227Y-38385
X52250Y-30612
X52250Y-34715
X52250Y-35362
X52465Y-31362
X52500Y-36612
X52500Y-51112
X52500Y-51612
X52715Y-34612
X52715Y-35112
X52715Y-35612
X52715Y-40240
X52750Y-29750
X52750Y-45612
X53250Y-38112
X53285Y-36112
X53285Y-40612
X53750Y-39862
X53856Y-40671
X54000Y-38862
X54250Y-39862
X54250Y-46612
X55250Y-30397
X56000Y-44612
X59989Y-31367
X60762Y-31358
X61423Y-30439
T2
X55839Y-30760
X55839Y-32000
X57000Y-28750
X57839Y-30760
X57839Y-32000
X59000Y-28750
X59000Y-32000
X61000Y-32000
T3
X56248Y-26500
X57248Y-26500
X59248Y-26500
X60248Y-26500
T4
X44494Y-25998
X44494Y-26998
X44500Y-50252
X44500Y-51252
X45494Y-25998
X45494Y-26998
X45500Y-50252
X45500Y-51252
X46494Y-25998
X46494Y-26998
X46500Y-50252
X46500Y-51252
X47494Y-25998
X47494Y-26998
X47500Y-50252
X47500Y-51252
X48494Y-25998
X48494Y-26998
X48500Y-50252
X48500Y-51252
X49494Y-25998
X49494Y-26998
X49500Y-50252
X49500Y-51252
X50494Y-25998
X50494Y-26998
X50500Y-50252
X50500Y-51252
X51494Y-25998
X51494Y-26998
X51500Y-50252
X51500Y-51252
X55004Y-34500
X55004Y-35500
X55004Y-36500
X55004Y-37500
X55004Y-38500
X55004Y-39500
X55004Y-40500
X55004Y-41500
X55004Y-42500
X55004Y-43500
X55004Y-44500
X55004Y-45500
X55004Y-46500
X55004Y-47500
X55004Y-48500
X61004Y-34500
X61004Y-35500
X61004Y-36500
X61004Y-37500
X61004Y-38500
X61004Y-39500
X61004Y-40500
X61004Y-41500
X61004Y-42500
X61004Y-43500
X61004Y-44500
X61004Y-45500
X61004Y-46500
X61004Y-47500
X61004Y-48500
T0
M30
