%FSLAX45Y45*%
G04 Gerber Fmt 4.5, Leading zero omitted, Abs format (unit mm)*
G04 Created by KiCad (PCBNEW (6.0.4)) date 2022-03-26 17:54:47*
%MOMM*%
%LPD*%
G01*
G04 APERTURE LIST*
%TA.AperFunction,Profile*%
%ADD10C,0.200000*%
%TD*%
%ADD11C,0.200000*%
%ADD12C,0.350000*%
G04 APERTURE END LIST*
D10*
X10033000Y-13589000D02*
X10033000Y-6223000D01*
X16383000Y-13589000D02*
X10033000Y-13589000D01*
X16383000Y-6223000D02*
X16383000Y-13589000D01*
X10033000Y-6223000D02*
X16383000Y-6223000D01*
D11*
D12*
X10239000Y-6429000D02*
X10589000Y-6779000D01*
X10589000Y-6429000D02*
X10239000Y-6779000D01*
X10239000Y-13033000D02*
X10589000Y-13383000D01*
X10589000Y-13033000D02*
X10239000Y-13383000D01*
X15827000Y-6429000D02*
X16177000Y-6779000D01*
X16177000Y-6429000D02*
X15827000Y-6779000D01*
X15827000Y-13033000D02*
X16177000Y-13383000D01*
X16177000Y-13033000D02*
X15827000Y-13383000D01*
D11*
X10280619Y-13909476D02*
X10280619Y-13709476D01*
X10328238Y-13709476D01*
X10356810Y-13719000D01*
X10375857Y-13738048D01*
X10385381Y-13757095D01*
X10394905Y-13795190D01*
X10394905Y-13823762D01*
X10385381Y-13861857D01*
X10375857Y-13880905D01*
X10356810Y-13899952D01*
X10328238Y-13909476D01*
X10280619Y-13909476D01*
X10480619Y-13909476D02*
X10480619Y-13776143D01*
X10480619Y-13814238D02*
X10490143Y-13795190D01*
X10499667Y-13785667D01*
X10518714Y-13776143D01*
X10537762Y-13776143D01*
X10604429Y-13909476D02*
X10604429Y-13776143D01*
X10604429Y-13709476D02*
X10594905Y-13719000D01*
X10604429Y-13728524D01*
X10613952Y-13719000D01*
X10604429Y-13709476D01*
X10604429Y-13728524D01*
X10728238Y-13909476D02*
X10709190Y-13899952D01*
X10699667Y-13880905D01*
X10699667Y-13709476D01*
X10833000Y-13909476D02*
X10813952Y-13899952D01*
X10804429Y-13880905D01*
X10804429Y-13709476D01*
X11061571Y-13909476D02*
X11061571Y-13709476D01*
X11128238Y-13852333D01*
X11194905Y-13709476D01*
X11194905Y-13909476D01*
X11375857Y-13909476D02*
X11375857Y-13804714D01*
X11366333Y-13785667D01*
X11347286Y-13776143D01*
X11309190Y-13776143D01*
X11290143Y-13785667D01*
X11375857Y-13899952D02*
X11356809Y-13909476D01*
X11309190Y-13909476D01*
X11290143Y-13899952D01*
X11280619Y-13880905D01*
X11280619Y-13861857D01*
X11290143Y-13842809D01*
X11309190Y-13833286D01*
X11356809Y-13833286D01*
X11375857Y-13823762D01*
X11471095Y-13776143D02*
X11471095Y-13976143D01*
X11471095Y-13785667D02*
X11490143Y-13776143D01*
X11528238Y-13776143D01*
X11547286Y-13785667D01*
X11556809Y-13795190D01*
X11566333Y-13814238D01*
X11566333Y-13871381D01*
X11556809Y-13890428D01*
X11547286Y-13899952D01*
X11528238Y-13909476D01*
X11490143Y-13909476D01*
X11471095Y-13899952D01*
X11652048Y-13890428D02*
X11661571Y-13899952D01*
X11652048Y-13909476D01*
X11642524Y-13899952D01*
X11652048Y-13890428D01*
X11652048Y-13909476D01*
X11652048Y-13785667D02*
X11661571Y-13795190D01*
X11652048Y-13804714D01*
X11642524Y-13795190D01*
X11652048Y-13785667D01*
X11652048Y-13804714D01*
X9823000Y-14139000D02*
X10023000Y-14339000D01*
X10023000Y-14139000D02*
X9823000Y-14339000D01*
X10261571Y-14129476D02*
X10385381Y-14129476D01*
X10318714Y-14205667D01*
X10347286Y-14205667D01*
X10366333Y-14215190D01*
X10375857Y-14224714D01*
X10385381Y-14243762D01*
X10385381Y-14291381D01*
X10375857Y-14310428D01*
X10366333Y-14319952D01*
X10347286Y-14329476D01*
X10290143Y-14329476D01*
X10271095Y-14319952D01*
X10261571Y-14310428D01*
X10471095Y-14310428D02*
X10480619Y-14319952D01*
X10471095Y-14329476D01*
X10461571Y-14319952D01*
X10471095Y-14310428D01*
X10471095Y-14329476D01*
X10661571Y-14129476D02*
X10566333Y-14129476D01*
X10556810Y-14224714D01*
X10566333Y-14215190D01*
X10585381Y-14205667D01*
X10633000Y-14205667D01*
X10652048Y-14215190D01*
X10661571Y-14224714D01*
X10671095Y-14243762D01*
X10671095Y-14291381D01*
X10661571Y-14310428D01*
X10652048Y-14319952D01*
X10633000Y-14329476D01*
X10585381Y-14329476D01*
X10566333Y-14319952D01*
X10556810Y-14310428D01*
X10794905Y-14129476D02*
X10813952Y-14129476D01*
X10833000Y-14139000D01*
X10842524Y-14148524D01*
X10852048Y-14167571D01*
X10861571Y-14205667D01*
X10861571Y-14253286D01*
X10852048Y-14291381D01*
X10842524Y-14310428D01*
X10833000Y-14319952D01*
X10813952Y-14329476D01*
X10794905Y-14329476D01*
X10775857Y-14319952D01*
X10766333Y-14310428D01*
X10756810Y-14291381D01*
X10747286Y-14253286D01*
X10747286Y-14205667D01*
X10756810Y-14167571D01*
X10766333Y-14148524D01*
X10775857Y-14139000D01*
X10794905Y-14129476D01*
X10985381Y-14129476D02*
X11004429Y-14129476D01*
X11023476Y-14139000D01*
X11033000Y-14148524D01*
X11042524Y-14167571D01*
X11052048Y-14205667D01*
X11052048Y-14253286D01*
X11042524Y-14291381D01*
X11033000Y-14310428D01*
X11023476Y-14319952D01*
X11004429Y-14329476D01*
X10985381Y-14329476D01*
X10966333Y-14319952D01*
X10956810Y-14310428D01*
X10947286Y-14291381D01*
X10937762Y-14253286D01*
X10937762Y-14205667D01*
X10947286Y-14167571D01*
X10956810Y-14148524D01*
X10966333Y-14139000D01*
X10985381Y-14129476D01*
X11137762Y-14329476D02*
X11137762Y-14196143D01*
X11137762Y-14215190D02*
X11147286Y-14205667D01*
X11166333Y-14196143D01*
X11194905Y-14196143D01*
X11213952Y-14205667D01*
X11223476Y-14224714D01*
X11223476Y-14329476D01*
X11223476Y-14224714D02*
X11233000Y-14205667D01*
X11252048Y-14196143D01*
X11280619Y-14196143D01*
X11299667Y-14205667D01*
X11309190Y-14224714D01*
X11309190Y-14329476D01*
X11404428Y-14329476D02*
X11404428Y-14196143D01*
X11404428Y-14215190D02*
X11413952Y-14205667D01*
X11433000Y-14196143D01*
X11461571Y-14196143D01*
X11480619Y-14205667D01*
X11490143Y-14224714D01*
X11490143Y-14329476D01*
X11490143Y-14224714D02*
X11499667Y-14205667D01*
X11518714Y-14196143D01*
X11547286Y-14196143D01*
X11566333Y-14205667D01*
X11575857Y-14224714D01*
X11575857Y-14329476D01*
X11966333Y-14119952D02*
X11794905Y-14377095D01*
X12223476Y-14129476D02*
X12242524Y-14129476D01*
X12261571Y-14139000D01*
X12271095Y-14148524D01*
X12280619Y-14167571D01*
X12290143Y-14205667D01*
X12290143Y-14253286D01*
X12280619Y-14291381D01*
X12271095Y-14310428D01*
X12261571Y-14319952D01*
X12242524Y-14329476D01*
X12223476Y-14329476D01*
X12204428Y-14319952D01*
X12194905Y-14310428D01*
X12185381Y-14291381D01*
X12175857Y-14253286D01*
X12175857Y-14205667D01*
X12185381Y-14167571D01*
X12194905Y-14148524D01*
X12204428Y-14139000D01*
X12223476Y-14129476D01*
X12375857Y-14310428D02*
X12385381Y-14319952D01*
X12375857Y-14329476D01*
X12366333Y-14319952D01*
X12375857Y-14310428D01*
X12375857Y-14329476D01*
X12575857Y-14329476D02*
X12461571Y-14329476D01*
X12518714Y-14329476D02*
X12518714Y-14129476D01*
X12499667Y-14158048D01*
X12480619Y-14177095D01*
X12461571Y-14186619D01*
X12642524Y-14129476D02*
X12766333Y-14129476D01*
X12699667Y-14205667D01*
X12728238Y-14205667D01*
X12747286Y-14215190D01*
X12756809Y-14224714D01*
X12766333Y-14243762D01*
X12766333Y-14291381D01*
X12756809Y-14310428D01*
X12747286Y-14319952D01*
X12728238Y-14329476D01*
X12671095Y-14329476D01*
X12652048Y-14319952D01*
X12642524Y-14310428D01*
X12833000Y-14129476D02*
X12966333Y-14129476D01*
X12880619Y-14329476D01*
X13071095Y-14215190D02*
X13052048Y-14205667D01*
X13042524Y-14196143D01*
X13033000Y-14177095D01*
X13033000Y-14167571D01*
X13042524Y-14148524D01*
X13052048Y-14139000D01*
X13071095Y-14129476D01*
X13109190Y-14129476D01*
X13128238Y-14139000D01*
X13137762Y-14148524D01*
X13147286Y-14167571D01*
X13147286Y-14177095D01*
X13137762Y-14196143D01*
X13128238Y-14205667D01*
X13109190Y-14215190D01*
X13071095Y-14215190D01*
X13052048Y-14224714D01*
X13042524Y-14234238D01*
X13033000Y-14253286D01*
X13033000Y-14291381D01*
X13042524Y-14310428D01*
X13052048Y-14319952D01*
X13071095Y-14329476D01*
X13109190Y-14329476D01*
X13128238Y-14319952D01*
X13137762Y-14310428D01*
X13147286Y-14291381D01*
X13147286Y-14253286D01*
X13137762Y-14234238D01*
X13128238Y-14224714D01*
X13109190Y-14215190D01*
X13223476Y-14129476D02*
X13223476Y-14167571D01*
X13299667Y-14129476D02*
X13299667Y-14167571D01*
X13594905Y-14405667D02*
X13585381Y-14396143D01*
X13566333Y-14367571D01*
X13556809Y-14348524D01*
X13547286Y-14319952D01*
X13537762Y-14272333D01*
X13537762Y-14234238D01*
X13547286Y-14186619D01*
X13556809Y-14158048D01*
X13566333Y-14139000D01*
X13585381Y-14110428D01*
X13594905Y-14100905D01*
X13756809Y-14196143D02*
X13756809Y-14329476D01*
X13709190Y-14119952D02*
X13661571Y-14262809D01*
X13785381Y-14262809D01*
X14013952Y-14329476D02*
X14013952Y-14129476D01*
X14099667Y-14329476D02*
X14099667Y-14224714D01*
X14090143Y-14205667D01*
X14071095Y-14196143D01*
X14042524Y-14196143D01*
X14023476Y-14205667D01*
X14013952Y-14215190D01*
X14223476Y-14329476D02*
X14204428Y-14319952D01*
X14194905Y-14310428D01*
X14185381Y-14291381D01*
X14185381Y-14234238D01*
X14194905Y-14215190D01*
X14204428Y-14205667D01*
X14223476Y-14196143D01*
X14252048Y-14196143D01*
X14271095Y-14205667D01*
X14280619Y-14215190D01*
X14290143Y-14234238D01*
X14290143Y-14291381D01*
X14280619Y-14310428D01*
X14271095Y-14319952D01*
X14252048Y-14329476D01*
X14223476Y-14329476D01*
X14404428Y-14329476D02*
X14385381Y-14319952D01*
X14375857Y-14300905D01*
X14375857Y-14129476D01*
X14556809Y-14319952D02*
X14537762Y-14329476D01*
X14499667Y-14329476D01*
X14480619Y-14319952D01*
X14471095Y-14300905D01*
X14471095Y-14224714D01*
X14480619Y-14205667D01*
X14499667Y-14196143D01*
X14537762Y-14196143D01*
X14556809Y-14205667D01*
X14566333Y-14224714D01*
X14566333Y-14243762D01*
X14471095Y-14262809D01*
X14642524Y-14319952D02*
X14661571Y-14329476D01*
X14699667Y-14329476D01*
X14718714Y-14319952D01*
X14728238Y-14300905D01*
X14728238Y-14291381D01*
X14718714Y-14272333D01*
X14699667Y-14262809D01*
X14671095Y-14262809D01*
X14652048Y-14253286D01*
X14642524Y-14234238D01*
X14642524Y-14224714D01*
X14652048Y-14205667D01*
X14671095Y-14196143D01*
X14699667Y-14196143D01*
X14718714Y-14205667D01*
X14794905Y-14405667D02*
X14804428Y-14396143D01*
X14823476Y-14367571D01*
X14833000Y-14348524D01*
X14842524Y-14319952D01*
X14852048Y-14272333D01*
X14852048Y-14234238D01*
X14842524Y-14186619D01*
X14833000Y-14158048D01*
X14823476Y-14139000D01*
X14804428Y-14110428D01*
X14794905Y-14100905D01*
X15156809Y-14405667D02*
X15147286Y-14396143D01*
X15128238Y-14367571D01*
X15118714Y-14348524D01*
X15109190Y-14319952D01*
X15099667Y-14272333D01*
X15099667Y-14234238D01*
X15109190Y-14186619D01*
X15118714Y-14158048D01*
X15128238Y-14139000D01*
X15147286Y-14110428D01*
X15156809Y-14100905D01*
X15233000Y-14196143D02*
X15233000Y-14329476D01*
X15233000Y-14215190D02*
X15242524Y-14205667D01*
X15261571Y-14196143D01*
X15290143Y-14196143D01*
X15309190Y-14205667D01*
X15318714Y-14224714D01*
X15318714Y-14329476D01*
X15442524Y-14329476D02*
X15423476Y-14319952D01*
X15413952Y-14310428D01*
X15404428Y-14291381D01*
X15404428Y-14234238D01*
X15413952Y-14215190D01*
X15423476Y-14205667D01*
X15442524Y-14196143D01*
X15471095Y-14196143D01*
X15490143Y-14205667D01*
X15499667Y-14215190D01*
X15509190Y-14234238D01*
X15509190Y-14291381D01*
X15499667Y-14310428D01*
X15490143Y-14319952D01*
X15471095Y-14329476D01*
X15442524Y-14329476D01*
X15566333Y-14196143D02*
X15642524Y-14196143D01*
X15594905Y-14129476D02*
X15594905Y-14300905D01*
X15604428Y-14319952D01*
X15623476Y-14329476D01*
X15642524Y-14329476D01*
X15861571Y-14196143D02*
X15861571Y-14396143D01*
X15861571Y-14205667D02*
X15880619Y-14196143D01*
X15918714Y-14196143D01*
X15937762Y-14205667D01*
X15947286Y-14215190D01*
X15956809Y-14234238D01*
X15956809Y-14291381D01*
X15947286Y-14310428D01*
X15937762Y-14319952D01*
X15918714Y-14329476D01*
X15880619Y-14329476D01*
X15861571Y-14319952D01*
X16071095Y-14329476D02*
X16052048Y-14319952D01*
X16042524Y-14300905D01*
X16042524Y-14129476D01*
X16233000Y-14329476D02*
X16233000Y-14224714D01*
X16223476Y-14205667D01*
X16204428Y-14196143D01*
X16166333Y-14196143D01*
X16147286Y-14205667D01*
X16233000Y-14319952D02*
X16213952Y-14329476D01*
X16166333Y-14329476D01*
X16147286Y-14319952D01*
X16137762Y-14300905D01*
X16137762Y-14281857D01*
X16147286Y-14262809D01*
X16166333Y-14253286D01*
X16213952Y-14253286D01*
X16233000Y-14243762D01*
X16299667Y-14196143D02*
X16375857Y-14196143D01*
X16328238Y-14129476D02*
X16328238Y-14300905D01*
X16337762Y-14319952D01*
X16356809Y-14329476D01*
X16375857Y-14329476D01*
X16518714Y-14319952D02*
X16499667Y-14329476D01*
X16461571Y-14329476D01*
X16442524Y-14319952D01*
X16433000Y-14300905D01*
X16433000Y-14224714D01*
X16442524Y-14205667D01*
X16461571Y-14196143D01*
X16499667Y-14196143D01*
X16518714Y-14205667D01*
X16528238Y-14224714D01*
X16528238Y-14243762D01*
X16433000Y-14262809D01*
X16699667Y-14329476D02*
X16699667Y-14129476D01*
X16699667Y-14319952D02*
X16680619Y-14329476D01*
X16642524Y-14329476D01*
X16623476Y-14319952D01*
X16613952Y-14310428D01*
X16604428Y-14291381D01*
X16604428Y-14234238D01*
X16613952Y-14215190D01*
X16623476Y-14205667D01*
X16642524Y-14196143D01*
X16680619Y-14196143D01*
X16699667Y-14205667D01*
X16775857Y-14405667D02*
X16785381Y-14396143D01*
X16804429Y-14367571D01*
X16813952Y-14348524D01*
X16823476Y-14319952D01*
X16833000Y-14272333D01*
X16833000Y-14234238D01*
X16823476Y-14186619D01*
X16813952Y-14158048D01*
X16804429Y-14139000D01*
X16785381Y-14110428D01*
X16775857Y-14100905D01*
M02*
